<svg xmlns="http://www.w3.org/2000/svg" width="26.718" height="19.758" viewBox="0 0 26.718 19.758"><defs><style>.a{fill:#fff;}</style></defs><path class="a" d="M26.718,7.052a10.128,10.128,0,0,1-2.9.017,4.831,4.831,0,0,0,2.759-2.04,9.708,9.708,0,0,1-3.28.339A4.858,4.858,0,0,0,14.318,6.4a5,5,0,0,0-.178,1.1A13.75,13.75,0,0,1,5.783,0a4.859,4.859,0,0,0-.238,6.658A4.8,4.8,0,0,1,3.58,5.512l-.014.051A4.88,4.88,0,0,0,6.09,11.181a4.848,4.848,0,0,1-1.272-.175,4.3,4.3,0,0,1-.867-.318A4.9,4.9,0,0,0,7.46,15.132a9.761,9.761,0,0,1-6.354.442A9.1,9.1,0,0,1,0,15.209a13.676,13.676,0,0,0,6.634,4.035A13.731,13.731,0,0,0,23.568,9.469c.056-.207.1-.41.145-.611A9.691,9.691,0,0,0,26.718,7.052Z"/></svg>