<svg xmlns="http://www.w3.org/2000/svg" width="27.898" height="17.358" viewBox="0 0 27.898 17.358"><defs><style>.a{fill:#fff;}</style></defs><g transform="translate(0)"><path class="a" d="M7.817,17.358H0V0H8.384c2.106.034,3.618.656,4.5,1.849A4.438,4.438,0,0,1,13.673,4.5a3.889,3.889,0,0,1-.8,2.555,4.12,4.12,0,0,1-1.322.988,3.875,3.875,0,0,1,2,1.533,4.615,4.615,0,0,1,.676,2.543,5.08,5.08,0,0,1-.771,2.769,4.817,4.817,0,0,1-1.228,1.363,4.762,4.762,0,0,1-1.959.872A12.177,12.177,0,0,1,7.817,17.358ZM4,9.717v4.626H7.672a4.062,4.062,0,0,0,1.758-.3,2.2,2.2,0,0,0,1.139-2.168,1.866,1.866,0,0,0-1.1-1.859,4.376,4.376,0,0,0-1.736-.294Zm0-6.7V6.844H7.676a3.5,3.5,0,0,0,1.835-.43,1.647,1.647,0,0,0,.7-1.526,1.557,1.557,0,0,0-.932-1.6,6.586,6.586,0,0,0-2.049-.272ZM21.842,17.246a6.819,6.819,0,0,1-4.38-1.531c-1.258-1.019-1.9-2.695-1.9-4.981a6.765,6.765,0,0,1,1.711-4.957,6.03,6.03,0,0,1,4.449-1.724,7.125,7.125,0,0,1,2.923.581A5.064,5.064,0,0,1,26.8,6.476a6.173,6.173,0,0,1,.992,2.571,16.384,16.384,0,0,1,.107,2.47H18.842a2.986,2.986,0,0,0,1.3,2.623,3.291,3.291,0,0,0,1.792.466A2.526,2.526,0,0,0,24.4,13.183h3.318a4.054,4.054,0,0,1-1.2,2.246A6.061,6.061,0,0,1,21.842,17.246ZM21.726,6.733a2.589,2.589,0,0,0-1.94.714,3.368,3.368,0,0,0-.867,1.924h5.6a2.73,2.73,0,0,0-.869-1.965A2.841,2.841,0,0,0,21.726,6.733Zm3.469-4.277H18.2V.72h6.991V2.455Z"/></g></svg>