<svg xmlns="http://www.w3.org/2000/svg" width="23.438" height="23.438" viewBox="0 0 23.438 23.438"><defs><style>.a{fill:#fff;}</style></defs><g transform="translate(0 0)"><path class="a" d="M16.114,23.438H7.324A7.332,7.332,0,0,1,0,16.114V7.324A7.332,7.332,0,0,1,7.324,0h8.789a7.332,7.332,0,0,1,7.324,7.324v8.789A7.332,7.332,0,0,1,16.114,23.438ZM7.324,2.2A5.133,5.133,0,0,0,2.2,7.324v8.789A5.133,5.133,0,0,0,7.324,21.24h8.789a5.132,5.132,0,0,0,5.126-5.126V7.324A5.133,5.133,0,0,0,16.114,2.2Z" transform="translate(0)"/><path class="a" d="M5.859,11.719a5.859,5.859,0,1,1,5.86-5.86A5.866,5.866,0,0,1,5.859,11.719Zm0-9.522A3.662,3.662,0,1,0,9.521,5.859,3.666,3.666,0,0,0,5.859,2.2Z" transform="translate(5.859 5.859)"/><path class="a" d="M.781,0a.752.752,0,0,1,.552.229.752.752,0,0,1,.229.552.752.752,0,0,1-.229.552.752.752,0,0,1-.552.229.752.752,0,0,1-.552-.229A.752.752,0,0,1,0,.781.752.752,0,0,1,.229.229.752.752,0,0,1,.781,0Z" transform="translate(17.237 4.639)"/></g></svg>