<svg xmlns="http://www.w3.org/2000/svg" width="47" height="47" viewBox="0 0 47 47"><defs><style>.a{fill:none;stroke:#fff;stroke-miterlimit:10;stroke-width:2px;}.b{fill:#fff;}</style></defs><g transform="translate(1 1)"><path class="a" d="M22.5,0q1.105,0,2.205.108T26.89.432q1.084.216,2.142.537t2.079.744q1.021.423,2,.944T35,3.792q.919.614,1.774,1.315T38.41,6.59q.782.782,1.483,1.636T41.208,10q.614.919,1.135,1.894t.944,2q.423,1.021.744,2.079t.537,2.142q.216,1.084.324,2.184T45,22.5q0,1.105-.108,2.205t-.324,2.184q-.216,1.084-.537,2.142t-.744,2.079q-.423,1.021-.944,2T41.208,35q-.614.919-1.315,1.774T38.41,38.41q-.782.782-1.636,1.483T35,41.208q-.919.614-1.894,1.135t-2,.944q-1.021.423-2.079.744t-2.142.537q-1.084.216-2.184.324T22.5,45q-1.105,0-2.205-.108t-2.184-.324q-1.084-.216-2.142-.537t-2.079-.744q-1.021-.423-2-.944T10,41.208q-.919-.614-1.774-1.315T6.59,38.41q-.782-.782-1.483-1.636T3.792,35q-.614-.919-1.135-1.894t-.944-2Q1.29,30.089.969,29.031T.432,26.89Q.217,25.805.108,24.705T0,22.5q0-1.105.108-2.205T.432,18.11q.216-1.084.537-2.142t.744-2.079q.423-1.021.944-2T3.792,10q.614-.919,1.315-1.774T6.59,6.59q.782-.782,1.636-1.483T10,3.792q.919-.614,1.894-1.135t2-.944q1.021-.423,2.079-.744T18.11.432Q19.195.217,20.295.108T22.5,0Z"/><path class="b" d="M18.992,2.721H19v.007l1.079.981L16,7.59V4.721H0v-2H16V0Z" transform="translate(11.921 19)"/></g></svg>